<?xml version="1.0" encoding="UTF-8"?>
<svg id="Logo" xmlns="http://www.w3.org/2000/svg" viewBox="0 0 200.15 160">
  <defs>
    <style>
      .cls-1 {
        fill: none;
        stroke-width: 4px;
      }

      .cls-1, .cls-2, .cls-3 {
        stroke: #fff;
        stroke-miterlimit: 10;
      }

      .cls-2 {
        stroke-width: 2px;
      }

      .cls-2, .cls-4 {
        fill: #fff;
      }

      .cls-3 {
        fill: #4d6cfa;
        stroke-width: 5px;
      }
    </style>
  </defs>
  <g id="Otter">
    <g id="Ebene_5" data-name="Ebene 5">
      <polygon class="cls-3" points="120.4 61.94 138.68 42.04 157.3 59.2 139.81 81.83 136.9 66.7 120.4 61.94"/>
      <polygon class="cls-3" points="66.61 57.75 62.36 38.66 88.38 33.71 92.78 53.96 73.95 48.53 66.61 57.75"/>
      <polygon class="cls-3" points="73.95 48.53 136.9 66.7 145.64 112.06 87.81 121.31 43.34 87.01 73.95 48.53"/>
      <polygon class="cls-4" points="180.42 97.93 158.02 83.57 132.67 98.81 129.81 94.07 158.12 77.06 183.41 93.28 180.42 97.93"/>
      <polygon class="cls-4" points="167.61 107.51 159.27 96.98 136.24 105.07 134.4 99.85 161.16 90.45 171.94 104.07 167.61 107.51"/>
      <polygon class="cls-4" points="64.49 82.21 35.88 59.97 7.95 64.11 7.14 58.64 37.41 54.14 67.89 77.84 64.49 82.21"/>
      <polygon class="cls-4" points="55.85 85.15 33.34 71.27 17.4 73.82 16.53 68.36 34.49 65.48 58.76 80.44 55.85 85.15"/>
      <polyline class="cls-1" points="69.67 93.6 71.65 98.02 87.4 104.52 91.57 110.89 103.76 110.56 116.84 106.37"/>
      <polygon class="cls-2" points="106.15 85.2 114.84 88 121.11 88.08 112.67 90.2 106.15 85.2"/>
      <polygon class="cls-2" points="80.24 73.12 85.75 78.17 85.31 80.96 79.7 82.41 76.19 77.66 80.24 73.12"/>
      <polygon class="cls-2" points="99.56 93.62 89.15 90.5 92.8 96.51 99.56 93.62"/>
    </g>
  </g>
</svg>