<?xml version="1.0" encoding="UTF-8"?>
<svg xmlns="http://www.w3.org/2000/svg" viewBox="0 0 160 160">
  <defs>
    <style>
      .cls-1 {
        fill: none;
        stroke-width: 4px;
      }

      .cls-1, .cls-2, .cls-3 {
        stroke: #fff;
        stroke-miterlimit: 10;
      }

      .cls-2 {
        stroke-width: 2px;
      }

      .cls-2, .cls-4 {
        fill: #fff;
      }

      .cls-3 {
        fill: #4d6cfa;
        stroke-width: 5px;
      }

      .cls-5 {
        fill: #fa774d;
      }
    </style>
  </defs>
  <g id="Ebene_4" data-name="Ebene 4">
    <polygon class="cls-5" points="81.47 1.78 101.73 18.1 127.71 16.8 134.5 41.91 156.28 56.13 147.02 80.44 156.28 104.75 134.5 118.97 127.71 144.08 101.73 142.78 81.47 159.1 61.22 142.78 35.24 144.08 28.44 118.97 6.66 104.75 15.92 80.44 6.66 56.13 28.44 41.91 35.24 16.8 61.22 18.1 81.47 1.78"/>
  </g>
  <g id="_Layer_" data-name="&amp;lt;Layer&amp;gt;">
    <polygon class="cls-3" points="57.76 48.53 120.71 66.7 129.45 112.06 71.63 121.31 27.15 87.01 57.76 48.53"/>
    <polygon class="cls-3" points="50.43 57.75 46.18 38.66 72.2 33.71 76.6 53.96 57.76 48.53 50.43 57.75"/>
    <polygon class="cls-3" points="104.22 61.94 122.49 42.04 141.11 59.2 123.63 81.83 120.71 66.7 104.22 61.94"/>
    <polygon class="cls-2" points="83.38 93.62 72.96 90.5 76.61 96.51 83.38 93.62"/>
    <polygon class="cls-2" points="64.06 73.12 69.57 78.17 69.12 80.96 63.52 82.41 60 77.66 64.06 73.12"/>
    <polygon class="cls-2" points="89.96 85.2 98.65 88 104.93 88.08 96.49 90.2 89.96 85.2"/>
    <polyline class="cls-1" points="53.48 93.6 55.47 98.02 71.22 104.52 75.39 110.89 87.58 110.56 100.66 106.37"/>
    <polygon class="cls-4" points="39.67 85.15 17.16 71.27 1.22 73.82 .35 68.36 18.31 65.48 42.58 80.44 39.67 85.15"/>
    <polygon class="cls-4" points="48.31 82.21 19.69 59.97 -8.23 64.11 -9.04 58.64 21.22 54.14 51.71 77.84 48.31 82.21"/>
    <polygon class="cls-4" points="151.42 107.51 143.08 96.98 120.06 105.07 118.22 99.85 144.97 90.45 155.76 104.07 151.42 107.51"/>
    <polygon class="cls-4" points="164.24 97.93 141.84 83.57 116.48 98.81 113.63 94.07 141.93 77.06 167.23 93.28 164.24 97.93"/>
  </g>
</svg>