<?xml version="1.0" encoding="UTF-8"?>
<svg id="Logo" xmlns="http://www.w3.org/2000/svg" viewBox="0 0 160 160">
  <defs>
    <style>
      .cls-1 {
        fill: none;
        stroke-width: 4px;
      }

      .cls-1, .cls-2, .cls-3 {
        stroke: #fff;
        stroke-miterlimit: 10;
      }

      .cls-2 {
        stroke-width: 2px;
      }

      .cls-2, .cls-4 {
        fill: #fff;
      }

      .cls-3 {
        fill: #4d6cfa;
        stroke-width: 5px;
      }

      .cls-5 {
        fill: #fa774d;
      }
    </style>
  </defs>
  <g id="Otter">
    <g id="Ebene_4" data-name="Ebene 4">
      <polygon class="cls-5" points="80 0 96.75 12.03 117.18 9.16 126.42 27.6 145.84 34.55 145.45 55.18 159.42 70.36 149.49 88.44 154.8 108.37 137.61 119.76 133.05 139.88 112.53 141.98 99.15 157.68 80 150 60.85 157.68 47.47 141.98 26.95 139.88 22.39 119.76 5.2 108.37 10.51 88.44 .58 70.36 14.55 55.18 14.16 34.55 33.58 27.6 42.82 9.16 63.25 12.03 80 0"/>
      <polygon class="cls-5" points="80 0 96.75 12.03 117.18 9.16 126.42 27.6 145.84 34.55 145.45 55.18 159.42 70.36 149.49 88.44 154.8 108.37 137.61 119.76 133.05 139.88 112.53 141.98 99.15 157.68 80 150 60.85 157.68 47.47 141.98 26.95 139.88 22.39 119.76 5.2 108.37 10.51 88.44 .58 70.36 14.55 55.18 14.16 34.55 33.58 27.6 42.82 9.16 63.25 12.03 80 0"/>
    </g>
    <g id="Ebene_5" data-name="Ebene 5">
      <polygon class="cls-3" points="100.22 61.94 118.49 42.04 137.11 59.2 119.63 81.83 116.71 66.7 100.22 61.94"/>
      <polygon class="cls-3" points="46.43 57.75 42.18 38.66 68.2 33.71 72.6 53.96 53.76 48.53 46.43 57.75"/>
      <polygon class="cls-3" points="53.76 48.53 116.71 66.7 125.45 112.06 67.63 121.31 23.15 87.01 53.76 48.53"/>
      <polygon class="cls-4" points="160.24 97.93 137.84 83.57 112.48 98.81 109.63 94.07 137.93 77.06 163.23 93.28 160.24 97.93"/>
      <polygon class="cls-4" points="147.42 107.51 139.08 96.98 116.06 105.07 114.22 99.85 140.97 90.45 151.76 104.07 147.42 107.51"/>
      <polygon class="cls-4" points="44.31 82.21 15.69 59.97 -12.23 64.11 -13.04 58.64 17.22 54.14 47.71 77.84 44.31 82.21"/>
      <polygon class="cls-4" points="35.67 85.15 13.16 71.27 -2.78 73.82 -3.65 68.36 14.31 65.48 38.58 80.44 35.67 85.15"/>
      <polyline class="cls-1" points="49.48 93.6 51.47 98.02 67.22 104.52 71.39 110.89 83.58 110.56 96.66 106.37"/>
      <polygon class="cls-2" points="85.96 85.2 94.65 88 100.93 88.08 92.49 90.2 85.96 85.2"/>
      <polygon class="cls-2" points="60.06 73.12 65.57 78.17 65.12 80.96 59.52 82.41 56 77.66 60.06 73.12"/>
      <polygon class="cls-2" points="79.38 93.62 68.96 90.5 72.61 96.51 79.38 93.62"/>
    </g>
  </g>
</svg>